<svg width="233" height="308" viewBox="0 0 233 308" fill="none" xmlns="http://www.w3.org/2000/svg">
<path d="M154.578 0.0134277C159.818 -0.22657 167.618 2.83416 173.608 3.06421C176.718 3.18421 182.859 1.81362 184.379 2.21362C185.49 2.51472 195.129 11.4238 196.629 13.0437C198.319 14.8736 198.888 17.2436 200.578 19.0935C209.438 28.8034 220.158 37.1037 228.538 47.1335C233.138 52.6335 229.829 53.604 230.009 58.574C230.469 71.0339 228.468 77.1144 228.198 87.6843C227.968 96.9142 228.909 107.304 229.049 116.534C229.209 127.854 230.228 132.404 231.858 142.814C235.098 163.504 230.369 177.464 230.009 197.574C229.889 204.274 231.699 212.054 231.129 219.614C230.509 227.884 229.698 231.924 230.288 240.564C230.588 244.984 233.198 256.774 230.778 259.784L230.788 259.803C228.498 262.653 219.739 267.354 216.549 270.044C209.059 281.924 199.768 291.654 189.108 300.604C185.578 303.564 180.388 307.014 175.618 307.094C171.408 307.163 166.948 304.464 162.648 304.034C151.188 302.894 137.179 306.234 124.559 306.134C106.989 306.004 86.1886 304.063 68.5586 305.053C59.5086 305.563 55.6084 310.334 47.6084 303.084C42.7486 298.674 38.0487 294.924 33.0889 290.604C23.1189 281.914 15.3381 268.964 2.28809 263.904C2.05809 259.484 0.278594 256.134 0.0585938 251.634C-0.461326 240.874 2.63838 225.144 3.14844 213.644C3.97843 194.844 1.94843 176.004 2.1084 157.604C2.1484 153.454 5.11844 148.694 5.14844 145.624C5.19842 141.574 3.8588 137.724 4.00879 131.494C4.38879 115.114 1.20849 97.974 2.14844 80.7341C2.31844 77.5741 4.21848 74.5635 4.18848 70.5935C4.12833 63.0836 -0.481074 50.7243 3.64844 44.1443C4.02834 43.5444 10.6753 36.0375 11.1582 35.6541C14.3881 33.0641 24.328 30.0338 29.0381 26.5339C33.8781 22.9439 34.0186 19.4635 37.0986 15.5935C38.8386 13.4038 41.548 12.3637 42.958 10.4539C44.698 8.10386 44.5986 4.51351 47.0986 2.59351C52.0988 -1.23622 66.1789 2.90378 72.5488 3.12378C85.4588 3.57372 101.179 0.613982 113.629 1.57397C117.149 1.84414 119.689 5.04382 124.599 5.16382C129.509 5.2838 133.519 2.81421 137.839 2.31421C139.689 2.10434 141.469 3.21346 143.479 3.05347C146.908 2.78344 150.288 0.213571 154.578 0.0134277ZM125.169 94.7234C124.929 98.8333 127.898 102.404 128.818 105.884C130.018 110.463 129.608 114.924 130.538 119.164C131.858 125.204 136.888 132.584 138.608 139.094C141.558 150.273 143.058 162.184 145.328 173.374C146.278 178.044 151.468 183.344 152.658 189.044C154.608 198.424 155.688 208.694 158.788 217.914C161.548 226.124 168.338 233.174 171.618 240.084C175.818 248.914 172.119 255.344 178.879 263.824C179.819 265.004 180.009 266.563 182.099 266.094L179.599 245.094C169.149 214.754 161.968 183.373 153.068 152.634C148.118 135.534 144.188 117.644 138.328 101.374C136.898 97.414 135.619 93.294 135.099 89.1042H135.089L125.169 94.7234ZM113.158 96.6335C113.017 93.5035 99.7784 88.3843 99.1084 89.1042C100.298 99.1639 94.9286 106.364 92.5586 115.053C90.3186 123.273 89.4487 132.454 87.9287 140.334C86.9087 145.604 81.8286 152.304 81.2686 155.854C80.4987 160.764 81.0685 169.684 80.0586 175.553C79.5886 178.303 77.3181 180.194 76.5381 183.034C73.3782 194.434 75.5783 194.194 69.2686 205.763C62.9986 217.273 64.9688 229.014 63.0488 241.544C62.5888 244.524 60.0184 247.494 59.0684 250.564C57.4985 255.654 56.4683 260.954 55.1084 266.094H55.0986C57.1486 266.523 57.4281 265.084 58.2881 263.794C69.9281 246.404 70.1681 237.564 74.5381 218.044C76.7081 208.354 83.6388 205.213 85.0088 196.513C85.4586 193.654 84.7284 190.714 85.3184 187.824C86.5884 181.514 94.3289 171.074 95.8389 164.344C99.3789 148.504 105.218 133.604 107.988 118.494C108.758 114.304 108.369 106.973 109.299 103.803C110.009 101.404 113.858 100.983 113.158 96.6335ZM94.6191 149.124C89.3591 153.364 89.4789 142.934 95.0889 144.104L94.6191 149.124ZM147.088 143.104C148.168 145.644 147.558 149.103 144.108 149.094L143.158 144.723L147.088 143.104ZM123.129 53.5642C116.999 51.9042 110.538 51.054 106.078 55.864C99.9282 62.4841 92.8287 78.6439 101.408 85.7839V85.7742C108.558 91.7241 123.808 92.6236 131.458 86.9539C137.318 82.6039 139.458 67.0941 135.998 61.6941C135.578 61.0439 124.251 53.8657 123.129 53.5642ZM113.819 54.2839C120.759 52.7542 122.009 56.764 126.149 59.5339C130.849 62.6737 134.949 62.6142 135.899 69.864C136.209 72.1941 135.139 79.6137 133.989 81.4939C133.189 82.7939 124.859 88.4635 123.349 88.8435C116.858 90.5034 100.549 86.3335 99.2686 78.3835C98.259 72.1234 107.089 55.7547 113.809 54.2742L113.819 54.2839ZM117.849 62.2439H117.859C115.779 62.4439 112.669 64.0541 111.229 65.7341C110.208 66.9153 107.099 75.6834 107.229 76.4539C107.649 78.8638 120.189 81.214 122.379 80.9041C126.629 80.2941 128.939 73.424 127.919 69.824C127.329 67.744 119.959 62.0439 117.849 62.2439ZM120.389 24.7742C119.349 24.1842 119.789 21.294 115.599 22.0339C113.079 22.4739 112.468 26.9043 108.038 26.6843C106.938 31.7843 108.059 39.2843 111.169 43.5242C112.609 45.4937 115.889 44.7245 116.688 49.1443C121.508 49.9743 119.389 47.5336 120.349 46.4236C121.079 45.5839 122.588 45.4337 123.158 44.6941C124.978 42.2941 123.779 32.1139 125.669 28.0339C125.119 25.094 122.399 25.9239 120.389 24.7839V24.7742Z" fill="#3B0558"/>
<style>@media (prefers-color-scheme: dark){path{fill:#F4F3EF}}</style></svg>
